<svg width="16" height="16" viewBox="0 0 16 16" fill="none" xmlns="http://www.w3.org/2000/svg">
<path d="M6.65004 5.98334C6.97634 5.657 7.19855 5.24124 7.28856 4.78863C7.37857 4.33601 7.33235 3.86687 7.15574 3.44052C6.97913 3.01417 6.68006 2.64977 6.29635 2.39339C5.91264 2.13701 5.46152 2.00017 5.00004 2.00017C4.53856 2.00017 4.08745 2.13701 3.70374 2.39339C3.32003 2.64977 3.02096 3.01417 2.84435 3.44052C2.66773 3.86687 2.62151 4.33601 2.71153 4.78863C2.80154 5.24124 3.02374 5.657 3.35004 5.98334L5.00004 7.63334L6.65004 5.98334ZM5.00004 9.51867L2.40671 6.92667C1.89409 6.41381 1.54504 5.76047 1.4037 5.04925C1.26236 4.33803 1.33508 3.60088 1.61265 2.93098C1.89022 2.26109 2.36019 1.68853 2.96313 1.28571C3.56607 0.882888 4.27492 0.667885 5.00004 0.667885C5.72517 0.667885 6.43401 0.882888 7.03695 1.28571C7.6399 1.68853 8.10986 2.26109 8.38744 2.93098C8.66501 3.60088 8.73772 4.33803 8.59638 5.04925C8.45504 5.76047 8.106 6.41381 7.59338 6.92667L5.00004 9.52V9.51867ZM5.00004 5.33334C4.73483 5.33334 4.48047 5.22798 4.29294 5.04044C4.1054 4.85291 4.00004 4.59855 4.00004 4.33334C4.00004 4.06812 4.1054 3.81376 4.29294 3.62623C4.48047 3.43869 4.73483 3.33333 5.00004 3.33333C5.26526 3.33333 5.51961 3.43869 5.70715 3.62623C5.89469 3.81376 6.00004 4.06812 6.00004 4.33334C6.00004 4.59855 5.89469 4.85291 5.70715 5.04044C5.51961 5.22798 5.26526 5.33334 5.00004 5.33334V5.33334ZM11 13.6333L12.65 11.9833C12.9763 11.657 13.1985 11.2412 13.2886 10.7886C13.3786 10.336 13.3323 9.86687 13.1557 9.44052C12.9791 9.01417 12.6801 8.64977 12.2963 8.39339C11.9126 8.13701 11.4615 8.00017 11 8.00017C10.5386 8.00017 10.0874 8.13701 9.70374 8.39339C9.32003 8.64977 9.02096 9.01417 8.84435 9.44052C8.66774 9.86687 8.62151 10.336 8.71153 10.7886C8.80154 11.2412 9.02374 11.657 9.35004 11.9833L11 13.6333ZM13.5934 12.9267L11 15.5187L8.40671 12.926C7.89409 12.4131 7.54504 11.7598 7.4037 11.0486C7.26236 10.3374 7.33508 9.60021 7.61265 8.93032C7.89022 8.26042 8.36019 7.68787 8.96313 7.28504C9.56607 6.88222 10.2749 6.66722 11 6.66722C11.7252 6.66722 12.434 6.88222 13.037 7.28504C13.6399 7.68787 14.1099 8.26042 14.3874 8.93032C14.665 9.60021 14.7377 10.3374 14.5964 11.0486C14.455 11.7598 14.106 12.4131 13.5934 12.926V12.9267ZM11 11.3333C10.7348 11.3333 10.4805 11.228 10.2929 11.0404C10.1054 10.8529 10 10.5986 10 10.3333C10 10.0681 10.1054 9.81377 10.2929 9.62623C10.4805 9.43869 10.7348 9.33334 11 9.33334C11.2653 9.33334 11.5196 9.43869 11.7071 9.62623C11.8947 9.81377 12 10.0681 12 10.3333C12 10.5986 11.8947 10.8529 11.7071 11.0404C11.5196 11.228 11.2653 11.3333 11 11.3333V11.3333Z" fill="#66788A"/>
</svg>
