<svg width="16" height="16" viewBox="0 0 16 16" fill="none" xmlns="http://www.w3.org/2000/svg">
<path d="M3.83644 9.94932C3.60267 9.98347 3.36652 10.0005 3.13005 10.0002C1.97749 9.99976 0.933653 9.33317 0 8C0.933653 6.66682 1.97749 6.00024 3.13005 5.99977C3.37306 5.99977 3.60917 6.01768 3.83595 6.05115C3.62958 5.47569 3.33282 4.93377 2.95591 4.44408C3.54744 4.15131 4.2037 3.99901 4.86946 4C5.87274 3.99856 6.84274 4.34481 7.60057 4.9749C8.4114 4.76719 9.24741 4.66352 10.0867 4.66659C13.353 4.66659 16 6.15864 16 8C16 9.84136 13.3525 11.3339 10.0867 11.3334C9.24741 11.3365 8.4114 11.2328 7.60057 11.0251C6.84274 11.6552 5.87274 12.0014 4.86946 12C4.20366 12.0014 3.5473 11.849 2.95591 11.5559C3.33282 11.0662 3.63007 10.5248 3.83644 9.94932ZM11.8246 8C11.8246 8.0876 11.8426 8.17434 11.8776 8.25527C11.9126 8.3362 11.9639 8.40974 12.0285 8.47168C12.0931 8.53362 12.1699 8.58276 12.2543 8.61628C12.3388 8.6498 12.4293 8.66706 12.5207 8.66706C12.6121 8.66706 12.7026 8.6498 12.7871 8.61628C12.8715 8.58276 12.9482 8.53362 13.0129 8.47168C13.0775 8.40974 13.1288 8.3362 13.1638 8.25527C13.1987 8.17434 13.2168 8.0876 13.2168 8C13.2168 7.82308 13.1434 7.65341 13.0129 7.52832C12.8823 7.40322 12.7053 7.33294 12.5207 7.33294C12.3361 7.33294 12.159 7.40322 12.0285 7.52832C11.898 7.65341 11.8246 7.82308 11.8246 8ZM4.17242 8C4.17291 7.89676 4.16799 7.73459 4.15913 7.51302C3.87284 7.38008 3.41241 7.3386 2.95542 7.33341C2.59436 7.32964 2.23231 7.55781 1.76499 8.00283C2.23231 8.4469 2.67011 8.66281 2.95542 8.66658C3.4129 8.67224 3.84431 8.65386 4.1311 8.52045C4.17143 8.37619 4.17242 8.15462 4.17242 8Z" fill="#66788A"/>
</svg>
