<svg width="16" height="16" viewBox="0 0 16 16" fill="none" xmlns="http://www.w3.org/2000/svg">
<path fill-rule="evenodd" clip-rule="evenodd" d="M13.3417 6.40101H15.1905C15.6302 6.40101 15.99 6.76078 16 7.19051V8.78951C16 9.22924 15.6402 9.58902 15.2005 9.58902H13.3517C13.2317 9.97877 13.0618 10.3385 12.872 10.6883L14.1711 11.9875C14.471 12.2873 14.471 12.777 14.1711 13.0768L13.0818 14.1662C12.782 14.466 12.2923 14.466 11.9925 14.1662L10.6933 12.867C10.3435 13.0568 9.98376 13.2167 9.594 13.3367V15.1955C9.594 15.6352 9.23423 15.995 8.7945 15.995H7.1955C6.75578 15.995 6.396 15.6352 6.396 15.1955V13.3367C6.02623 13.2267 5.68645 13.0768 5.35665 12.8969L3.9975 14.2561C3.6877 14.5659 3.17801 14.5659 2.86821 14.2561L1.73891 13.1268C1.42911 12.817 1.42911 12.3073 1.73891 11.9975L3.09806 10.6384C2.91818 10.3086 2.75828 9.96878 2.64834 9.59901H0.7995C0.359775 9.59901 0 9.23923 0 8.79951V7.20051C0 6.76078 0.359775 6.40101 0.7995 6.40101H2.64834C2.76827 6.01125 2.92817 5.65148 3.12805 5.31169L1.82886 4.0125C1.52904 3.71269 1.52904 3.22299 1.82886 2.92318L2.90818 1.83386C3.20799 1.53405 3.69769 1.53405 3.9975 1.83386L5.29669 3.13305C5.64647 2.94317 6.00625 2.78327 6.396 2.66334V0.804505C6.396 0.36478 6.75578 0.00500488 7.1955 0.00500488H8.7945C9.23423 0.00500488 9.594 0.36478 9.594 0.804505V2.66334C9.96377 2.77327 10.3036 2.93317 10.6334 3.10307L11.9925 1.74392C12.3023 1.43411 12.812 1.43411 13.1218 1.74392L14.2511 2.87321C14.5609 3.18302 14.5609 3.6927 14.2511 4.00251L12.8919 5.36166C13.0718 5.69145 13.2317 6.03124 13.3417 6.40101ZM4.99688 8.00001C4.99688 9.65897 6.33604 10.9981 7.995 10.9981C9.65397 10.9981 10.9931 9.65897 10.9931 8.00001C10.9931 6.34104 9.65397 5.00188 7.995 5.00188C6.33604 5.00188 4.99688 6.34104 4.99688 8.00001Z" fill="black"/>
<mask id="mask0" mask-type="alpha" maskUnits="userSpaceOnUse" x="0" y="0" width="16" height="16">
<path fill-rule="evenodd" clip-rule="evenodd" d="M13.3417 6.40101H15.1905C15.6302 6.40101 15.99 6.76078 16 7.19051V8.78951C16 9.22924 15.6402 9.58902 15.2005 9.58902H13.3517C13.2317 9.97877 13.0618 10.3385 12.872 10.6883L14.1711 11.9875C14.471 12.2873 14.471 12.777 14.1711 13.0768L13.0818 14.1662C12.782 14.466 12.2923 14.466 11.9925 14.1662L10.6933 12.867C10.3435 13.0568 9.98376 13.2167 9.594 13.3367V15.1955C9.594 15.6352 9.23423 15.995 8.7945 15.995H7.1955C6.75578 15.995 6.396 15.6352 6.396 15.1955V13.3367C6.02623 13.2267 5.68645 13.0768 5.35665 12.8969L3.9975 14.2561C3.6877 14.5659 3.17801 14.5659 2.86821 14.2561L1.73891 13.1268C1.42911 12.817 1.42911 12.3073 1.73891 11.9975L3.09806 10.6384C2.91818 10.3086 2.75828 9.96878 2.64834 9.59901H0.7995C0.359775 9.59901 0 9.23923 0 8.79951V7.20051C0 6.76078 0.359775 6.40101 0.7995 6.40101H2.64834C2.76827 6.01125 2.92817 5.65148 3.12805 5.31169L1.82886 4.0125C1.52904 3.71269 1.52904 3.22299 1.82886 2.92318L2.90818 1.83386C3.20799 1.53405 3.69769 1.53405 3.9975 1.83386L5.29669 3.13305C5.64647 2.94317 6.00625 2.78327 6.396 2.66334V0.804505C6.396 0.36478 6.75578 0.00500488 7.1955 0.00500488H8.7945C9.23423 0.00500488 9.594 0.36478 9.594 0.804505V2.66334C9.96377 2.77327 10.3036 2.93317 10.6334 3.10307L11.9925 1.74392C12.3023 1.43411 12.812 1.43411 13.1218 1.74392L14.2511 2.87321C14.5609 3.18302 14.5609 3.6927 14.2511 4.00251L12.8919 5.36166C13.0718 5.69145 13.2317 6.03124 13.3417 6.40101ZM4.99688 8.00001C4.99688 9.65897 6.33604 10.9981 7.995 10.9981C9.65397 10.9981 10.9931 9.65897 10.9931 8.00001C10.9931 6.34104 9.65397 5.00188 7.995 5.00188C6.33604 5.00188 4.99688 6.34104 4.99688 8.00001Z" fill="white"/>
</mask>
<g mask="url(#mask0)">
<rect width="16" height="16" fill="white"/>
</g>
</svg>
