<svg width="16" height="16" viewBox="0 0 16 16" fill="none" xmlns="http://www.w3.org/2000/svg">
<path fill-rule="evenodd" clip-rule="evenodd" d="M8 0C3.58 0 0 3.58 0 8C0 12.42 3.58 16 8 16C12.42 16 16 12.42 16 8C16 3.58 12.42 0 8 0ZM8 14C4.69 14 2 11.31 2 8C2 4.69 4.69 2 8 2C11.31 2 14 4.69 14 8C14 11.31 11.31 14 8 14ZM9 4V7.59L10.71 9.29C10.89 9.47 11 9.72 11 10C11 10.55 10.55 11 10 11C9.72 11 9.47 10.89 9.29 10.71L7.29 8.71C7.11 8.53 7 8.28 7 8V4C7 3.45 7.45 3 8 3C8.55 3 9 3.45 9 4Z" fill="black"/>
<mask id="mask0" mask-type="alpha" maskUnits="userSpaceOnUse" x="0" y="0" width="16" height="16">
<path fill-rule="evenodd" clip-rule="evenodd" d="M8 0C3.58 0 0 3.58 0 8C0 12.42 3.58 16 8 16C12.42 16 16 12.42 16 8C16 3.58 12.42 0 8 0ZM8 14C4.69 14 2 11.31 2 8C2 4.69 4.69 2 8 2C11.31 2 14 4.69 14 8C14 11.31 11.31 14 8 14ZM9 4V7.59L10.71 9.29C10.89 9.47 11 9.72 11 10C11 10.55 10.55 11 10 11C9.72 11 9.47 10.89 9.29 10.71L7.29 8.71C7.11 8.53 7 8.28 7 8V4C7 3.45 7.45 3 8 3C8.55 3 9 3.45 9 4Z" fill="white"/>
</mask>
<g mask="url(#mask0)">
<rect width="16" height="16" fill="#677889"/>
</g>
</svg>
