<svg width="16" height="16" viewBox="0 0 16 16" fill="none" xmlns="http://www.w3.org/2000/svg">
<path fill-rule="evenodd" clip-rule="evenodd" d="M11.9 6.56L15.89 14.56C15.95 14.69 16 14.84 16 15C16 15.55 15.55 16 15 16C14.61 16 14.28 15.77 14.11 15.45H14.1L13.38 14H8.62L7.9 15.44H7.89C7.72 15.77 7.39 16 7 16C6.45 16 6 15.55 6 15C6 14.84 6.05 14.69 6.12 14.56H6.11L8.1 10.58L5.5 8.63L2.6 10.8L2.59 10.79C2.42 10.91 2.23 11 2 11C1.45 11 1 10.55 1 10C1 9.67 1.17 9.4 1.41 9.21L1.4 9.2L3.83 7.37L3.6 7.2C2.63 6.47 2 5.31 2 4H4C4 4.66 4.32 5.25 4.82 5.62L5.5 6.12L6.18 5.61C6.68 5.25 7 4.66 7 4V3H1C0.45 3 0 2.55 0 2C0 1.45 0.45 1 1 1H4C4 0.45 4.45 0 5 0H6C6.55 0 7 0.45 7 1H10C10.55 1 11 1.45 11 2C11 2.55 10.55 3 10 3H9V4C9 5.31 8.37 6.47 7.4 7.2L7.17 7.38L9 8.76L10.1 6.56H10.11C10.28 6.23 10.61 6 11 6C11.39 6 11.72 6.23 11.89 6.56H11.9ZM11 9.24L9.62 12H12.38L11 9.24Z" fill="black"/>
<mask id="mask0" mask-type="alpha" maskUnits="userSpaceOnUse" x="0" y="0" width="16" height="16">
<path fill-rule="evenodd" clip-rule="evenodd" d="M11.9 6.56L15.89 14.56C15.95 14.69 16 14.84 16 15C16 15.55 15.55 16 15 16C14.61 16 14.28 15.77 14.11 15.45H14.1L13.38 14H8.62L7.9 15.44H7.89C7.72 15.77 7.39 16 7 16C6.45 16 6 15.55 6 15C6 14.84 6.05 14.69 6.12 14.56H6.11L8.1 10.58L5.5 8.63L2.6 10.8L2.59 10.79C2.42 10.91 2.23 11 2 11C1.45 11 1 10.55 1 10C1 9.67 1.17 9.4 1.41 9.21L1.4 9.2L3.83 7.37L3.6 7.2C2.63 6.47 2 5.31 2 4H4C4 4.66 4.32 5.25 4.82 5.62L5.5 6.12L6.18 5.61C6.68 5.25 7 4.66 7 4V3H1C0.45 3 0 2.55 0 2C0 1.45 0.45 1 1 1H4C4 0.45 4.45 0 5 0H6C6.55 0 7 0.45 7 1H10C10.55 1 11 1.45 11 2C11 2.55 10.55 3 10 3H9V4C9 5.31 8.37 6.47 7.4 7.2L7.17 7.38L9 8.76L10.1 6.56H10.11C10.28 6.23 10.61 6 11 6C11.39 6 11.72 6.23 11.89 6.56H11.9ZM11 9.24L9.62 12H12.38L11 9.24Z" fill="white"/>
</mask>
<g mask="url(#mask0)">
<rect width="16" height="16" fill="white"/>
</g>
</svg>
