<svg width="16" height="16" viewBox="0 0 16 16" fill="none" xmlns="http://www.w3.org/2000/svg">
<path d="M15.4382 5.74392C15.7564 6.00485 15.7996 6.47037 15.5345 6.78369C15.2695 7.09701 14.7965 7.13948 14.4782 6.87855C12.6715 5.39738 10.4011 4.57327 8.00002 4.57327C5.60959 4.57327 3.34871 5.39002 1.5455 6.85917C1.22641 7.11914 0.753632 7.07526 0.489526 6.76116C0.22542 6.44705 0.269996 5.98166 0.58909 5.72168C2.65887 4.03534 5.25716 3.09671 8.00002 3.09671C10.7552 3.09671 13.3643 4.04381 15.4382 5.74392Z" fill="white"/>
<path d="M13.2042 9.15389C13.5123 9.42637 13.5377 9.89316 13.2609 10.1965C12.9841 10.4998 12.5099 10.5248 12.2018 10.2523C11.055 9.2383 9.57357 8.6683 8 8.6683C6.45635 8.6683 5.00105 9.2167 3.86268 10.1961C3.5508 10.4645 3.077 10.4331 2.8044 10.1261C2.53181 9.81911 2.56366 9.35271 2.87553 9.08438C4.28471 7.87194 6.0898 7.19174 8 7.19174C9.94727 7.19174 11.7847 7.89871 13.2042 9.15389Z" fill="white"/>
<path d="M8 14.23C8.70692 14.23 9.28 13.6659 9.28 12.97C9.28 12.2741 8.70692 11.71 8 11.71C7.29308 11.71 6.72 12.2741 6.72 12.97C6.72 13.6659 7.29308 14.23 8 14.23Z" fill="white"/>
</svg>
